<?xml version="1.0" encoding="utf-8"?>
<!-- Generator: Adobe Illustrator 26.0.2, SVG Export Plug-In . SVG Version: 6.00 Build 0)  -->
<svg version="1.1" id="Layer_3" xmlns="http://www.w3.org/2000/svg" xmlns:xlink="http://www.w3.org/1999/xlink" x="0px" y="0px"
	 viewBox="0 0 750 500" style="enable-background:new 0 0 750 500;" xml:space="preserve">
<style type="text/css">
	.st0{fill:#191919;}
	.st1{font-family:'GurmukhiMN-Bold';}
	.st2{font-size:102px;}
</style>
<g>
	<g>
		<g>
			<g>
				<path class="st0" d="M209,208.28c0,0,0.64,4.27,1.21,5.76c0,0,8.11-7.04,8.11-17.35c0-10.31-12.73-17.6-17.85-20.8
					c-5.12-3.2-7.25-5.01-13.87-3.73c-3.52,0-27.52-2.56-31.57-5.44c-20.19-14.34-27.82-5.86-32.96-10.24
					c-2.88-2.45-1.81-17.71-6.61-20.27c7.9-1.41,5.63,15.26,5.66,15.38c2.1,10.18,16.43-15.06-3.29-26.6
					c-4.07-2.38,0.31,11.09-7.11,20.23c-6.01,7.43-8.25,2.45-6.35,0.96c3.16-2.67,5.02-6.19,5.53-9.69
					c1.48-10.58-6.95-8.47-7.02-3.31c-0.11-4.19,5.35-6.67,7.14-2.01c3.46,9.16-5.91,15.49-5.45,16.66
					c0.9,2.37,9.77-4.14,10.65-17.83c0.1-1.77-1.21-12.33-11.24-12.33c-12.58,0-12.84,15.87-14.06,17.99
					c-12.97,12.64-15.2,11.77-15.2,14.27c0,3.08,2.93-0.41,2.93-1.28c0.29,1.23-1.57,2.93-2.4,3.49c-0.78,0.78,0.31,3.91,3.25,1.01
					c1.32-1.3,3.81-1.53,3.81-1.53c-2.68,0.67-3.05,2.21-5.68,3.52c1.09,5.21,8.3,0.85,10.74,0.85c1.71,0,7.72,0.89,10.38-2.92
					c0,0-1.32,2.92-4.02,4.3c0,0-1.28,10.99,2.84,18.67c16.27,30.3,11.02,25.9,27.38,33.35c0,0,1.56-6.47,0-10.52
					c4.17,4.29-1.51,20.17,1.07,26.03c0,1.56,0.21,13.65,0.21,13.65s-4.27,7.68-3.41,8.96c2.22,3.33,4.22,2.26,7.61,0.64
					c1.49-0.71,2.92-5.76,2.92-5.76s-1.14-3.7-1.71-5.48c-0.57-1.78,0.28-16.35,1.71-20.19c-1.45,9.02-1.07,16.14-0.57,17.28
					c2.18,4.99,2.32,20.15,6.4,21.26c5.53,1.51,4.41-5.41,1.71-10.03c-1.71-2.92-3.2-32.92-3.2-32.92
					c13.75,5.57,43.25,14.4,51.91,2.28c0,0-1.85,3.56-4.34,4.91c4.99,11.41,9.77,10.33,14.4,18.56
					c1.92,3.41,10.24,10.24,10.24,14.72c0,4.48-2.35,16.32-5.76,16.32h11.95c-0.96-7.89,2.03-27.41,3.31-29.87
					C220.13,235.91,207.23,228.25,209,208.28z"/>
			</g>
			<g>
				<path class="st0" d="M71.41,257.27c25.23-37.38,27.9-22.08,43.94-17.07c13.35,4.17,16.54-1.04,26.88,3.41
					c8.16,3.51,7.79,7.45,17.92,11.52c7.46,2.99,32.5,6.46,42.24,6.83c36.27,1.38,36.87-18.33,55.89,31.57
					c12.59,33.05,18.89,49.58,14.08,55.89c-9.27,12.17-39.3,6.65-58.88-3.84c-19.63-10.52-16.7-19.56-31.15-27.73
					c-30.13-17.03-57.96,13.8-124.58,14.51c-5.37,0.06-54.37,0.57-57.6-13.23C-2.98,305.77,41.99,300.84,71.41,257.27z"/>
			</g>
		</g>
	</g>
	<g>
		<g>
			<text transform="matrix(1 0 0 1 279.7002 232.8367)"><tspan x="0" y="0" class="st0 st1 st2">canyon</tspan><tspan x="0" y="91" class="st0 st1 st2">sheep</tspan></text>
		</g>
		<g>
		</g>
	</g>
</g>
</svg>
