<?xml version="1.0" encoding="utf-8"?>
<!-- Generator: Adobe Illustrator 26.0.2, SVG Export Plug-In . SVG Version: 6.00 Build 0)  -->
<svg version="1.1" xmlns="http://www.w3.org/2000/svg" xmlns:xlink="http://www.w3.org/1999/xlink" x="0px" y="0px"
	 viewBox="0 0 750 500" style="enable-background:new 0 0 750 500;" xml:space="preserve">
<style type="text/css">
	.st0{display:none;}
	.st1{fill:#B0CDFF;}
	.st2{fill:#0C58A3;}
	.st3{fill:#FFFFFF;}
	.st4{font-family:'Krungthep';}
	.st5{font-size:72px;}
</style>
<g id="BACKGROUND" class="st0">
</g>
<g id="OBJECTS">
	<g>
		<g>
			<g>
				<path class="st1" d="M268.64,212.03c-17.28-0.6-31.4-9.81-37.68-24.57l-0.64-1.5h76.45c25.67,0,48.45,9.36,64.24,26.07H268.64z"
					/>
				<g>
					<path class="st2" d="M353.21,197.97h-93.68c-11.64-0.41-21.83-4.73-29.17-12.01h-0.05l0.64,1.5
						c6.28,14.76,20.41,23.97,37.68,24.57h102.37C365.79,206.51,359.8,201.81,353.21,197.97z"/>
				</g>
				<path class="st3" d="M231.99,189.65c7.15,6.17,16.56,9.81,27.18,10.18h97.08c-1-0.64-2-1.27-3.03-1.87h-93.68
					c-11.64-0.41-21.83-4.73-29.17-12.01h-0.05l0.64,1.5C231.27,188.2,231.63,188.93,231.99,189.65z"/>
			</g>
		</g>
		<g>
			<path class="st2" d="M191.14,220.05c32.52,41.05,68.01,46.82,113.54,47.21l135.59,1.15l-1.11-2.67
				c-10.92-26.27-35.83-42.82-66.46-44.15l-97.32-0.82c-30.79-0.26-59.41-8.47-83.06-23.83l-31.26-20.3
				C161.06,176.64,182.95,209.72,191.14,220.05z"/>
			<path class="st1" d="M161.06,176.64c0,0,3.07,4.63,7.33,10.97c3.9,5.59,7.52,10.65,9.95,13.7
				c32.52,41.05,68.01,46.82,113.54,47.21l137.98,1.17c-13.01-16.84-33.36-27.07-57.17-28.1l-97.32-0.82
				c-30.79-0.26-59.41-8.47-83.06-23.83L161.06,176.64z"/>
			<path class="st3" d="M292.39,246.07c-45.53-0.39-81.02-6.15-113.54-47.21c-2.42-3.06-6.05-8.11-9.95-13.7
				c-1.54-2.3-2.93-4.36-4.07-6.07l-3.77-2.45c0,0,3.07,4.63,7.33,10.97c3.9,5.59,7.52,10.65,9.95,13.7
				c32.52,41.05,68.01,46.82,113.54,47.21l137.98,1.17c-0.65-0.85-1.34-1.66-2.03-2.47L292.39,246.07z"/>
		</g>
		<g>
			<text transform="matrix(1 0 0 1 168.4413 347.7735)"><tspan x="0" y="0" class="st1 st4 st5">RUN&amp;</tspan><tspan x="209.98" y="0" class="st2 st4 st5">PLAY</tspan></text>
		</g>
		<g class="st0">
		</g>
		<g>
			<path class="st1" d="M534.07,240.99c-23.65-2.58-34.78-18.05-44.67-37.73c-9.82-19.54-17.98-42.57-12.71-64.52
				c0.19-0.81-0.57-1.43-1.25-1.59c-6.84-1.5-18.58-2.29-24.54,1.91c-3.18,2.23-4.76,4.75-5.89,8.43c-1.02,3.38,2.54,6.44,0.67,6.03
				c-6.84-1.52-13.25-4.94-18.93-8.94c-7.14-5.02-29.49-30.13-17.65-37.98c2.69-1.78,7.66-7,4.45-10.36c-2.51-2.63-8.57,0.9-10.85,2
				c-22.25,10.76-41.79,31.4-54.76,52.03c-1.86,2.41-3.72,4.82-5.59,7.24c-0.07,0.08-0.08,0.16-0.12,0.23
				c-0.02,0.04-0.05,0.06-0.07,0.09c-6.28,12.69,8.26,24.25,17,31.1c17.54,13.76,37.95,23.26,56.48,35.51
				c24.62,16.29,43.95,38.39,73.44,46.16c21.08,5.55,62.56,1.39,69.75-20.22C561.54,242.21,537.17,241.32,534.07,240.99z
				 M475.32,262.89c-22.56-9.39-39.53-28.55-59.63-41.85c-14.17-9.36-29.32-17.16-43.55-26.44c-9.73-6.34-34.32-20.99-27.41-35.51
				c1.26-1.62,2.5-3.22,3.74-4.83c3.75,9.73,19.1,17.73,26.23,21.99c13.44,8.02,27.68,14.28,40.56,23.28
				c10.87,7.6,20.23,17.06,29.4,26.58c8.66,9.01,16.86,19.93,28.07,25.94c10.91,5.85,22.54,8.08,34.78,9.3
				c17.36,1.74,43.98-6.03,46.25-6.53C534.01,269.69,496.87,271.85,475.32,262.89z"/>
			<path class="st2" d="M474.58,266.63c-22.66-9.12-42.29-32.28-62.39-45.58c-14.17-9.36-29.32-17.16-43.55-26.44
				c-9.73-6.34-34.32-20.99-27.41-35.51c1.26-1.62,2.5-3.22,3.74-4.83c3.75,9.73,19.1,17.73,26.23,21.99
				c13.44,8.02,27.68,14.28,40.56,23.28c10.87,7.6,20.23,17.06,29.4,26.58c8.66,9.01,16.86,19.93,28.07,25.94
				c10.91,5.85,24.98,11.64,43.91,11.02c21.29-0.69,41.99-8.93,44.27-9.42C541.98,278.44,496.72,275.53,474.58,266.63z"/>
		</g>
	</g>
	<path class="st3" d="M398.79,111.77c0,0,0.61,19.12,15.63,31.74c15.02,12.62,29.83,13.52,29.83,13.52s-11.36,1.36-28.19-9.45
		C399.24,136.76,396.42,117.2,398.79,111.77z"/>
</g>
</svg>
